<svg xmlns="http://www.w3.org/2000/svg" xmlns:xlink="http://www.w3.org/1999/xlink" width="500" zoomAndPan="magnify" viewBox="0 0 375 374.999991" height="500" preserveAspectRatio="xMidYMid meet" version="1.0"><defs><clipPath id="3194f6159c"><path d="M 7 47.21875 L 156 47.21875 L 156 155 L 7 155 Z M 7 47.21875 " clip-rule="nonzero"/></clipPath><clipPath id="9210145492"><path d="M 219 47.21875 L 368 47.21875 L 368 155 L 219 155 Z M 219 47.21875 " clip-rule="nonzero"/></clipPath><clipPath id="152cead77b"><path d="M 90 47.21875 L 286 47.21875 L 286 144 L 90 144 Z M 90 47.21875 " clip-rule="nonzero"/></clipPath><clipPath id="2d549ea3f8"><path d="M 176 143 L 368 143 L 368 347.96875 L 176 347.96875 Z M 176 143 " clip-rule="nonzero"/></clipPath><clipPath id="549fcbc515"><path d="M 7 143 L 199 143 L 199 347.96875 L 7 347.96875 Z M 7 143 " clip-rule="nonzero"/></clipPath><clipPath id="80f4e9da53"><path d="M 90 143 L 286 143 L 286 347.96875 L 90 347.96875 Z M 90 143 " clip-rule="nonzero"/></clipPath><clipPath id="32930a127d"><path d="M 187 47.21875 L 286 47.21875 L 286 144 L 187 144 Z M 187 47.21875 " clip-rule="nonzero"/></clipPath><clipPath id="159b4fa258"><path d="M 187 143 L 286 143 L 286 347.96875 L 187 347.96875 Z M 187 143 " clip-rule="nonzero"/></clipPath></defs><g clip-path="url(#3194f6159c)"><path fill="#a0ebff" d="M 101.890625 154.300781 L 18.3125 154.300781 C 14.027344 154.300781 10.164062 151.730469 8.511719 147.78125 C 6.859375 143.832031 7.742188 139.277344 10.75 136.230469 L 95.390625 50.46875 C 97.386719 48.445312 100.109375 47.308594 102.953125 47.308594 L 144.742188 47.308594 C 148.425781 47.308594 151.84375 49.210938 153.78125 52.339844 C 155.714844 55.46875 155.890625 59.375 154.25 62.667969 L 111.398438 148.429688 C 109.597656 152.027344 105.917969 154.300781 101.890625 154.300781 Z M 101.890625 154.300781 " fill-opacity="1" fill-rule="nonzero"/></g><g clip-path="url(#9210145492)"><path fill="#73c8f0" d="M 356.878906 154.300781 L 273.296875 154.300781 C 269.273438 154.300781 265.59375 152.027344 263.792969 148.429688 L 220.941406 62.667969 C 219.296875 59.375 219.476562 55.46875 221.410156 52.339844 C 223.34375 49.210938 226.765625 47.308594 230.445312 47.308594 L 272.234375 47.308594 C 275.078125 47.308594 277.804688 48.445312 279.800781 50.46875 L 364.441406 136.230469 C 367.449219 139.277344 368.332031 143.832031 366.679688 147.78125 C 365.027344 151.730469 361.160156 154.300781 356.878906 154.300781 Z M 356.878906 154.300781 " fill-opacity="1" fill-rule="nonzero"/></g><g clip-path="url(#152cead77b)"><path fill="#d2f0ff" d="M 90.011719 143.410156 L 144.742188 47.308594 L 230.445312 47.308594 L 285.011719 143.410156 Z M 90.011719 143.410156 " fill-opacity="1" fill-rule="nonzero"/></g><g clip-path="url(#2d549ea3f8)"><path fill="#0073aa" d="M 261.804688 143.410156 L 177.878906 332.890625 C 175.753906 337.6875 177.457031 343.320312 181.882812 346.140625 C 183.644531 347.261719 185.625 347.804688 187.589844 347.804688 C 190.570312 347.804688 193.511719 346.554688 195.59375 344.175781 L 364.875 150.671875 C 366.664062 148.628906 367.558594 146.023438 367.492188 143.40625 L 261.804688 143.40625 Z M 261.804688 143.410156 " fill-opacity="1" fill-rule="nonzero"/></g><g clip-path="url(#549fcbc515)"><path fill="#41b4e6" d="M 113.386719 143.410156 L 7.699219 143.410156 C 7.632812 146.023438 8.523438 148.628906 10.3125 150.671875 L 179.597656 344.175781 C 181.679688 346.558594 184.621094 347.804688 187.601562 347.804688 C 189.566406 347.804688 191.546875 347.261719 193.304688 346.140625 C 197.734375 343.320312 199.433594 337.691406 197.308594 332.890625 Z M 113.386719 143.410156 " fill-opacity="1" fill-rule="nonzero"/></g><g clip-path="url(#80f4e9da53)"><path fill="#a0ebff" d="M 90.011719 143.410156 L 177.878906 341.484375 C 179.582031 345.328125 183.390625 347.804688 187.59375 347.804688 C 191.800781 347.804688 195.609375 345.328125 197.308594 341.484375 L 285.011719 143.410156 Z M 90.011719 143.410156 " fill-opacity="1" fill-rule="nonzero"/></g><g clip-path="url(#32930a127d)"><path fill="#41b4e6" d="M 187.511719 143.410156 L 285.011719 143.410156 L 230.445312 47.308594 L 187.511719 47.308594 Z M 187.511719 143.410156 " fill-opacity="1" fill-rule="nonzero"/></g><g clip-path="url(#159b4fa258)"><path fill="#73c8f0" d="M 187.59375 347.804688 C 191.800781 347.804688 195.609375 345.328125 197.308594 341.484375 L 285.011719 143.410156 L 187.59375 143.410156 Z M 187.59375 347.804688 " fill-opacity="1" fill-rule="nonzero"/></g></svg>